<svg xmlns="http://www.w3.org/2000/svg" width="2000" height="518" viewBox="0 0 2000 518" version="1.1"><path d="M 747.217 54.844 C 691.934 68.397, 691.934 68.397, 692.217 78.420 C 692.500 88.443, 692.500 88.443, 702.500 91.193 C 708 92.705, 713.582 94.518, 714.905 95.221 C 720.222 98.049, 720 90.802, 720 261.256 C 720 419.576, 720 419.576, 717.750 424.030 C 714.977 429.520, 711.197 432.104, 700.949 435.517 C 693 438.164, 693 438.164, 693 449.088 C 693 460.013, 693 460.013, 768.750 459.756 C 844.500 459.500, 844.500 459.500, 844.783 448.798 C 845.067 438.095, 845.067 438.095, 840.783 436.988 C 838.428 436.379, 835.600 435.636, 834.500 435.337 C 829.349 433.935, 824.114 429.867, 822.096 425.698 C 820.011 421.391, 820 420.854, 820 321.257 C 820 221.145, 820 221.145, 825.895 217.564 C 839.410 209.354, 853.880 205.019, 867.807 205.007 C 878.382 204.998, 884.101 206.452, 887.517 210.017 C 892.964 215.703, 892.969 215.821, 892.962 322.500 C 892.956 415.928, 892.869 420.691, 891.095 424.599 C 888.602 430.087, 884.185 433.012, 874.538 435.563 C 866.500 437.688, 866.500 437.688, 866.217 448.844 C 865.934 460, 865.934 460, 942.001 460 C 1018.068 460, 1018.068 460, 1017.784 449.322 C 1017.500 438.645, 1017.500 438.645, 1012.500 436.686 C 999.915 431.757, 997.136 430.164, 995.321 426.838 C 993.607 423.697, 993.468 417.953, 992.965 329.500 C 992.380 226.740, 992.501 228.887, 986.322 211.650 C 977.220 186.261, 957.229 168.778, 929.301 161.782 C 917.571 158.844, 889.870 158.556, 877.439 161.242 C 860.500 164.903, 844.435 171.902, 826.682 183.354 C 818 188.955, 818 188.955, 817.987 160.728 C 817.980 145.202, 818.501 114.362, 819.145 92.193 C 820.145 57.752, 820.110 51.697, 818.908 50.583 C 818.133 49.866, 814.125 47.482, 810 45.285 C 802.500 41.291, 802.500 41.291, 747.217 54.844 M 1507 47.497 C 1492.975 50.947, 1468.112 57.040, 1451.750 61.036 C 1422 68.302, 1422 68.302, 1422 78.431 C 1422 88.559, 1422 88.559, 1432.593 91.408 C 1444.566 94.627, 1447.699 96.741, 1449.028 102.500 C 1450.382 108.362, 1450.297 413.515, 1448.940 419.844 C 1447.669 425.771, 1442.759 431.191, 1436.614 433.452 C 1434.351 434.284, 1430.250 435.773, 1427.500 436.762 C 1422.500 438.559, 1422.500 438.559, 1422.216 449.279 C 1421.932 460, 1421.932 460, 1497.999 460 C 1574.066 460, 1574.066 460, 1573.783 448.887 C 1573.500 437.773, 1573.500 437.773, 1565.717 435.530 C 1557.668 433.210, 1554.024 430.701, 1551.155 425.500 C 1549.651 422.774, 1549.475 413.344, 1549.227 322.341 C 1548.954 222.182, 1548.954 222.182, 1551.457 220.213 C 1555.857 216.751, 1569.259 210.261, 1577 207.843 C 1583.250 205.890, 1586.666 205.500, 1597.500 205.500 C 1608.699 205.500, 1610.971 205.777, 1613.902 207.500 C 1618.102 209.968, 1620.766 214.928, 1622.026 222.622 C 1623.377 230.873, 1623.312 416.337, 1621.956 421.219 C 1619.841 428.835, 1614.367 433.097, 1603 435.977 C 1596.500 437.624, 1596.500 437.624, 1596.217 448.818 C 1595.934 460.013, 1595.934 460.013, 1671.717 459.756 C 1747.500 459.500, 1747.500 459.500, 1747.500 449.117 C 1747.500 438.733, 1747.500 438.733, 1738.522 435.315 C 1728.458 431.483, 1726.429 430.032, 1724.112 425 C 1722.677 421.885, 1722.441 410.985, 1721.964 326 C 1721.427 230.500, 1721.427 230.500, 1718.824 221 C 1714.169 204.013, 1708.116 193.063, 1697.709 182.801 C 1674.436 159.853, 1633.806 152.669, 1594.401 164.534 C 1584.919 167.389, 1566.818 176.371, 1555.611 183.783 C 1551.273 186.652, 1547.560 189, 1547.361 189 C 1546.564 189, 1547.120 145.838, 1548.503 100.500 C 1549.308 74.100, 1549.974 52.202, 1549.983 51.838 C 1549.996 51.345, 1537.900 43.967, 1533 41.478 C 1532.725 41.338, 1521.025 44.047, 1507 47.497 M 1092.500 43.090 C 1064.055 46.062, 1044 67.527, 1044 95 C 1044 118.314, 1058.727 137.736, 1082 145.114 C 1094.909 149.206, 1113.858 147.653, 1125.983 141.509 C 1133.118 137.893, 1144.095 127.176, 1147.818 120.189 C 1158.539 100.076, 1155.238 74.255, 1139.997 59.006 C 1128.095 47.098, 1110.518 41.208, 1092.500 43.090 M 236.607 64.826 C 236.317 65.297, 209.041 143.266, 175.995 238.091 C 142.948 332.916, 114.967 412.461, 113.814 414.858 C 109.534 423.754, 104.084 427.524, 85.500 434.445 C 74.500 438.542, 74.500 438.542, 74.216 449.271 C 73.932 460, 73.932 460, 122.466 460 C 171 460, 171 460, 170.994 449.250 C 170.987 438.500, 170.987 438.500, 159.843 434.099 C 145.733 428.528, 144.558 427.429, 145.439 420.636 C 145.972 416.531, 158.348 378.600, 170.772 343 C 172.691 337.500, 172.691 337.500, 229.446 337.500 C 286.201 337.500, 286.201 337.500, 298.673 375.500 C 312.967 419.053, 314.181 425.074, 309.540 429.375 C 308.038 430.767, 302.612 433.297, 297.411 435.030 C 288 438.165, 288 438.165, 288 449.082 C 288 460, 288 460, 369.500 460 C 451 460, 451 460, 451 449.082 C 451 438.163, 451 438.163, 444.250 435.943 C 429.298 431.024, 423.533 426.313, 418.595 414.978 C 417.043 411.415, 389.367 331.100, 357.093 236.500 C 298.413 64.500, 298.413 64.500, 267.774 64.236 C 250.923 64.090, 236.898 64.356, 236.607 64.826 M 1080.250 176.780 C 1023 195.362, 1023 195.362, 1023 205.467 C 1023 215.571, 1023 215.571, 1032.250 217.418 C 1043.015 219.567, 1046.319 221.031, 1048.741 224.727 C 1050.389 227.243, 1050.500 233.542, 1050.500 324.956 C 1050.500 421.264, 1050.474 422.544, 1048.465 425.965 C 1045.860 430.397, 1042.515 432.300, 1032 435.327 C 1023.500 437.775, 1023.500 437.775, 1023.217 448.894 C 1022.934 460.013, 1022.934 460.013, 1098.717 459.756 C 1174.500 459.500, 1174.500 459.500, 1174.782 448.905 C 1175.065 438.310, 1175.065 438.310, 1167.582 436.089 C 1158.503 433.394, 1154.089 430.588, 1151.682 425.980 C 1149.948 422.660, 1149.879 416.688, 1150.182 296.282 C 1150.500 170.064, 1150.500 170.064, 1144.531 164.032 C 1141.249 160.714, 1138.324 158.045, 1138.031 158.099 C 1137.739 158.154, 1111.737 166.560, 1080.250 176.780 M 560 159.610 C 512.513 165.286, 481.196 185.319, 464.996 220.381 C 458.978 233.407, 457.495 241.078, 457.532 259 C 457.558 272.031, 457.924 275.761, 459.824 282.415 C 464.100 297.389, 471.240 309.379, 482.502 320.500 C 498.452 336.251, 514.011 344.258, 551.500 356.006 C 581.489 365.404, 593.634 370.707, 601.044 377.638 C 607.282 383.473, 609.535 387.665, 611.022 396.208 C 615.337 420.985, 595.460 437.922, 561.837 438.116 C 542.408 438.229, 531.576 434.317, 520.417 423.158 C 512.372 415.113, 506.633 406.494, 491.513 379.750 C 479.782 359, 479.782 359, 470.048 359 C 460.313 359, 460.313 359, 459.660 374.750 C 459.301 383.413, 459.005 402.083, 459.003 416.240 C 459 441.980, 459 441.980, 467.750 446.357 C 482.996 453.985, 506.639 462.283, 520.716 464.948 C 545.843 469.705, 586.230 468.997, 608.500 463.410 C 639.290 455.686, 663.008 440.954, 677.522 420.540 C 692.071 400.077, 697.140 369.539, 690.486 342.449 C 688.520 334.444, 682.623 321.219, 678.066 314.597 C 665.630 296.520, 643.106 281.861, 613.551 272.607 C 607.473 270.704, 596.491 267.286, 589.147 265.010 C 559.514 255.830, 542.121 245.431, 536.911 233.779 C 534.019 227.312, 533.747 215.670, 536.350 209.790 C 539.886 201.805, 551.455 194.009, 565 190.483 C 569.949 189.195, 574.125 188.908, 582.500 189.281 C 596.929 189.924, 601.883 191.724, 609.038 198.926 C 615.932 205.865, 619.546 211.426, 634 237.337 C 645.500 257.952, 645.500 257.952, 655.750 257.976 C 666 258, 666 258, 666.006 255.250 C 666.009 253.738, 666.907 236.975, 668 218 C 669.093 199.025, 669.991 183.132, 669.994 182.681 C 670.004 181.296, 646.050 170.376, 636 167.185 C 618.195 161.531, 606.606 159.816, 584 159.488 C 572.725 159.325, 561.925 159.380, 560 159.610 M 1289 159.673 C 1282.334 160.345, 1268.259 163.056, 1261.028 165.059 C 1232.217 173.043, 1206.908 193.795, 1195.068 219.141 C 1183.869 243.113, 1183.642 272.763, 1194.480 295.744 C 1206.353 320.920, 1230.368 339.677, 1265 350.823 C 1271.875 353.036, 1284.564 357.098, 1293.198 359.850 C 1329.103 371.295, 1339.771 380.519, 1340.787 401 C 1341.155 408.408, 1340.895 410.207, 1338.761 415 C 1332.130 429.893, 1314.477 438.176, 1289.500 438.116 C 1271.225 438.072, 1261.445 434.335, 1249.940 423 C 1241.708 414.889, 1238.319 409.851, 1223.034 383 C 1216.302 371.175, 1210.323 360.922, 1209.746 360.216 C 1208.993 359.293, 1205.995 359.011, 1199.099 359.216 C 1189.500 359.500, 1189.500 359.500, 1189.500 401 C 1189.500 442.500, 1189.500 442.500, 1198.500 446.875 C 1232.958 463.626, 1263.731 469.779, 1303.500 467.870 C 1337.058 466.259, 1365.472 457.348, 1385.735 442.079 C 1409.527 424.151, 1421.422 401.694, 1422.727 372.239 C 1423.572 353.174, 1420.830 339.573, 1413.002 324.004 C 1400.900 299.934, 1378.396 283.760, 1340.500 271.896 C 1306.574 261.275, 1302.171 259.711, 1291.500 254.486 C 1276.120 246.956, 1268.866 240.589, 1265.326 231.511 C 1263.770 227.519, 1263.701 216.731, 1265.200 211.728 C 1266.876 206.131, 1274.584 198.555, 1282.225 194.993 C 1292.815 190.056, 1300.046 188.686, 1312.608 189.236 C 1334.875 190.213, 1340.056 195.158, 1364.485 238.750 C 1375.273 258, 1375.273 258, 1385.117 258 C 1394.524 258, 1394.982 257.900, 1395.419 255.750 C 1395.670 254.512, 1396.595 238.650, 1397.473 220.500 C 1398.351 202.350, 1399.268 186.262, 1399.510 184.749 C 1399.920 182.191, 1399.407 181.726, 1392.225 178.134 C 1365.170 164.605, 1339.636 158.840, 1308.199 159.160 C 1299.564 159.248, 1290.925 159.479, 1289 159.673 M 207.355 237.283 C 183.310 306.500, 183.310 306.500, 229.312 306.760 C 254.613 306.903, 275.526 306.808, 275.785 306.548 C 276.129 306.205, 232.447 169.706, 231.539 168.283 C 231.463 168.164, 220.580 199.214, 207.355 237.283 M 1821.276 353.511 C 1801.963 357.708, 1784.574 374.735, 1778.394 395.500 C 1776.032 403.436, 1776.040 418.359, 1778.411 426.500 C 1783.690 444.626, 1798.082 459.425, 1816.339 465.500 C 1822.745 467.632, 1826.033 468.106, 1834.339 468.096 C 1852.069 468.073, 1863.544 463.436, 1875.649 451.404 C 1898.684 428.509, 1898.620 392.794, 1875.502 369.511 C 1860.930 354.835, 1841.530 349.110, 1821.276 353.511" stroke="none" fill="#fff4f4" fill-rule="evenodd"/><path d="" stroke="none" fill="#fcf4f4" fill-rule="evenodd"/></svg>